<svg width="18" height="18" viewBox="0 0 18 18" fill="none" xmlns="http://www.w3.org/2000/svg">
<path fill-rule="evenodd" clip-rule="evenodd" d="M0.666687 3.16667C0.666687 1.78596 1.78598 0.666672 3.16669 0.666672H14.8334C16.2141 0.666672 17.3334 1.78596 17.3334 3.16667V14.8333C17.3334 16.2141 16.2141 17.3333 14.8334 17.3333H3.16669C1.78598 17.3333 0.666687 16.2141 0.666687 14.8333V3.16667Z" fill="#1565D8"/>
<path fill-rule="evenodd" clip-rule="evenodd" d="M13.0952 5.91081C13.4206 6.23625 13.4206 6.76389 13.0952 7.08932L7.92259 12.506C7.59715 12.8314 7.06951 12.8314 6.74408 12.506L4.24408 10.006C3.91864 9.68056 3.91864 9.15292 4.24408 8.82748C4.56951 8.50204 5.09715 8.50204 5.42259 8.82748L7.33333 10.7382L11.9167 5.91081C12.2421 5.58538 12.7697 5.58538 13.0952 5.91081Z" fill="white"/>
</svg>
